<?xml version="1.0" standalone="no"?><!DOCTYPE svg PUBLIC "-//W3C//DTD SVG 1.1//EN" "http://www.w3.org/Graphics/SVG/1.1/DTD/svg11.dtd"><svg t="1642665430510" class="icon" viewBox="0 0 1024 1024" version="1.1" xmlns="http://www.w3.org/2000/svg" p-id="2795" xmlns:xlink="http://www.w3.org/1999/xlink" width="200" height="200"><defs><style type="text/css"></style></defs><path d="M485.372 470.856l211.21 211.21c40.758 40.758 33.291 114.542-7.467 155.3-40.758 40.758-107.074 40.758-147.832 0-11.663-11.663-11.663-30.575 0-42.238s30.575-11.663 42.238 0c17.468 17.468 45.888 17.468 63.357 0 17.469-17.469 17.469-45.888 0-63.357l-211.21-211.21" fill="#9494A8" p-id="2796"></path><path d="M615.2 883.051c-26.6 0-53.287-8.903-75.425-26.943a122.405 122.405 0 0 1-9.049-8.181c-5.833-5.833-5.833-15.283 0-21.117s15.283-5.833 21.117 0a89.546 89.546 0 0 0 6.81 6.147c35.707 29.116 87.267 26.476 119.904-6.147 34.934-34.934 34.934-91.788 0-126.722l-55.439-55.446c-5.833-5.833-5.833-15.291 0-21.117 5.833-5.833 15.283-5.833 21.117 0l55.439 55.446c46.586 46.579 46.586 122.376 0 168.955-23.29 23.298-53.82 35.125-84.474 35.125z" fill="#323241" p-id="2797"></path><path d="M551.831 837.363c-55.313 55.313-145.316 55.313-200.63 0-11.663-11.663-11.663-30.575 0-42.238s30.575-11.663 42.238 0c32.024 32.024 84.13 32.024 116.154 0s32.024-84.13 0-116.154l-79.206-79.206c-11.663-11.663-11.663-30.575 0-42.238s30.575-11.663 42.238 0l79.206 79.206c55.314 55.314 55.314 145.317 0 200.63zM836.949 552.245c-55.313 55.313-152.784 62.781-208.097 7.467l-79.206-79.206c-11.663-11.663-4.195-38.042 7.467-49.705s30.575-11.663 42.238 0l79.206 79.206c32.024 32.024 84.13 32.024 116.154 0s32.024-84.13 0-116.154c-11.663-11.663-11.663-30.575 0-42.238s30.575-11.663 42.238 0c55.313 55.314 55.313 145.317 0 200.63z" fill="#9494A8" p-id="2798"></path><path d="M501.987 586.889c35.404-23.827 35.338 16.444 86.725 67.823 7.201 26.116-5.587 120.859-19.587 140.416-14 19.557-44.892 6.491-35.513-17.776 9.379-24.267 4.109-66.682-15.044-87.62-19.152-20.938-83.006-77.029-71.54-85.138 11.465-8.11 19.555 6.122 54.959-17.705z" fill="#5B5B7F" p-id="2799"></path><path d="M451.815 834.131a98.838 98.838 0 0 1-23.435-2.829c-8.014-1.954-12.928-10.033-10.974-18.047 1.969-8.014 10.041-12.892 18.047-10.974 23.115 5.629 46.864-0.992 63.583-17.711 26.199-26.206 26.199-68.833 0-95.04l-77.78-77.78c-5.833-5.833-5.833-15.283 0-21.117 5.833-5.833 15.283-5.833 21.117 0l77.78 77.78c37.851 37.844 37.851 99.429 0 137.273-18.499 18.499-42.948 28.445-68.338 28.445z" fill="#323241" p-id="2800"></path><path d="M451.516 893.777c-41.927 0-81.302-16.282-110.87-45.857-8.466-8.458-13.125-19.709-13.125-31.675 0-11.966 4.659-23.217 13.125-31.682 5.833-5.819 15.291-5.826 21.124 0.007 5.826 5.833 5.826 15.291-0.007 21.124a14.801 14.801 0 0 0-4.375 10.551c0 3.989 1.553 7.736 4.375 10.551 23.931 23.939 55.803 37.115 89.753 37.115s65.822-13.176 89.753-37.107c49.489-49.496 49.489-130.018 0-179.513-5.833-5.833-5.833-15.283 0-21.117 5.833-5.833 15.283-5.833 21.117 0 61.141 61.133 61.141 160.614 0 221.747-29.568 29.574-68.943 45.856-110.87 45.856zM736.635 608.666c-41.927 0-81.302-16.29-110.877-45.865-5.833-5.833-5.833-15.283 0-21.117 5.833-5.833 15.283-5.833 21.117 0 23.939 23.931 55.81 37.115 89.76 37.115 8.247 0 14.933 6.686 14.933 14.933s-6.686 14.934-14.933 14.934zM798.563 594.513c-5.542 0-10.872-3.099-13.453-8.429-3.587-7.423-0.481-16.355 6.942-19.95 12.717-6.147 24.267-14.372 34.329-24.449 39.55-39.543 48.621-99.385 22.568-148.918-3.835-7.299-1.028-16.326 6.271-20.169 7.306-3.843 16.326-1.028 20.169 6.271 32.171 61.177 20.964 135.093-27.883 183.932-12.432 12.447-26.717 22.611-42.445 30.224a14.883 14.883 0 0 1-6.498 1.488zM832.251 362.725c-2.829 0-5.68-0.802-8.218-2.472a14.661 14.661 0 0 0-2.574-1.356c-7.642-3.092-11.331-11.798-8.232-19.447 3.092-7.642 11.798-11.331 19.447-8.232a44.983 44.983 0 0 1 7.824 4.112c6.883 4.55 8.772 13.81 4.229 20.694-2.873 4.346-7.627 6.701-12.476 6.701z" fill="#323241" p-id="2801"></path><path d="M736.635 548.954c-24.857 0-49.715-9.465-68.636-28.386l-79.209-79.209c-5.833-5.833-5.833-15.283 0-21.117s15.283-5.833 21.117 0l79.209 79.209c26.206 26.206 68.833 26.206 95.04 0 17.726-17.726 24.077-43.663 16.574-67.674-2.457-7.875 1.932-16.253 9.8-18.71 7.882-2.435 16.246 1.932 18.71 9.8 10.828 34.657 1.641 72.093-23.968 97.701-18.922 18.922-43.78 28.386-68.637 28.386z" fill="#323241" p-id="2802"></path><path d="M836.951 689.529c-40.758 40.758-107.074 40.758-147.832 0l-211.21-211.21c-11.663-11.663-11.663-30.575 0-42.238s30.575-11.663 42.238 0l211.21 211.21c17.469 17.469 45.888 17.469 63.357 0 17.469-17.468 17.469-45.888 0-63.357-11.663-11.663-11.663-30.575 0-42.238s30.575-11.663 42.238 0c40.757 40.759 40.757 107.075-0.001 147.833z" fill="#9494A8" p-id="2803"></path><path d="M646.875 810.061a14.881 14.881 0 0 1-10.558-4.375c-5.833-5.833-5.833-15.283 0-21.117 11.645-11.645 11.645-30.596 0-42.241l-95.842-95.842c-5.833-5.833-5.833-15.283 0-21.117 5.833-5.833 15.283-5.833 21.117 0l95.842 95.842c23.29 23.29 23.29 61.184 0 84.474a14.886 14.886 0 0 1-10.559 4.376zM763.038 735.037c-31.945 0-61.943-12.418-84.474-34.949l-58.785-58.785c-5.833-5.833-5.833-15.283 0-21.117 5.833-5.833 15.283-5.833 21.117 0l58.785 58.785c16.895 16.895 39.39 26.199 63.357 26.199 23.96 0 46.462-9.304 63.357-26.199 5.833-5.833 15.283-5.833 21.117 0 5.833 5.833 5.833 15.283 0 21.117-22.531 22.539-52.536 34.949-84.474 34.949z" fill="#323241" p-id="2804"></path><path d="M763.038 675.319c-15.298 0-30.596-5.826-42.241-17.471L610.825 547.875c-5.833-5.833-5.833-15.283 0-21.117 5.833-5.833 15.283-5.833 21.117 0l109.973 109.973c11.659 11.645 30.596 11.63 42.241 0 5.629-5.629 8.728-13.125 8.728-21.117 0-7.992-3.099-15.495-8.728-21.124-17.471-17.464-17.471-45.886 0-63.35 17.471-17.478 45.886-17.471 63.357 0 19.782 19.782 32.025 46.04 34.482 73.938 0.722 8.218-5.352 15.466-13.562 16.188-8.21 0.736-15.458-5.352-16.188-13.562-1.845-20.927-11.025-40.615-25.849-55.446-5.826-5.826-15.312-5.811-21.124 0-5.819 5.819-5.819 15.298 0 21.117 11.273 11.266 17.478 26.272 17.478 42.241s-6.205 30.968-17.478 42.233c-11.645 11.644-26.943 17.47-42.234 17.47z" fill="#323241" p-id="2805"></path><path d="M444.782 159.805c-47.799-10.658-188.723-29.793-255.047 36.531s-47.189 207.247-36.531 255.047c10.658 47.799 60.455 58.932 88.753 30.634l116.729-116.729 116.729-116.729c28.297-28.297 17.166-78.096-30.633-88.754z" fill="#9494A8" p-id="2806"></path><path d="M208.463 509.244c-11.995 0-23.793-3.332-34.285-9.829-16.29-10.077-27.818-27.074-32.455-47.87-4.258-19.111-39.324-188.985 40.549-268.858 79.866-79.866 249.74-44.807 268.858-40.549 27.409 6.11 48.001 24.289 55.081 48.635 6.686 22.991 0.117 47.994-17.143 65.253L372.336 372.751c-5.833 5.833-15.283 5.833-21.117 0s-5.833-15.283 0-21.117l116.732-116.725c9.698-9.698 13.278-23.078 9.581-35.795-4.054-13.927-16.049-24.07-32.907-27.825-63.379-14.131-185.522-23.195-241.238 32.514-55.708 55.708-46.652 177.851-32.514 241.237 2.909 13.067 9.486 23.085 19.017 28.977 8.218 5.082 17.894 6.621 27.249 4.28 7.984-1.991 16.107 2.888 18.098 10.894 1.983 8.006-2.888 16.107-10.894 18.098a65.967 65.967 0 0 1-15.88 1.955z" fill="#323241" p-id="2807"></path><path d="M500.162 291.638c-84.992-49.277-191.289-87.714-243.97-35.032s-14.245 158.978 35.032 243.97 119.365 109.068 155.803 104.017c36.439-5.051 78.197-46.81 94.27-62.882 16.072-16.072 57.831-57.831 62.882-94.27 5.05-36.437-19.025-106.526-104.017-155.803z" fill="#9494A8" p-id="2808"></path><path d="M283.705 476.241c-25.079-44.878 42.296-87.496 68.688-41.291 22.196 33.958 45.649 87.646 87.904 92.909 42.255 5.263 73.274-9.916 85.813-22.455 18.479-18.479 34.318 3.959 19.138 19.139-15.179 15.179-30.575 43.88-61.377 61.377s-87.14 28.967-137.285-18.515-41.765-54.209-62.881-91.164z" fill="#5B5B7F" p-id="2809"></path><path d="M436.678 620.216c-47.104 0-112.758-33.483-158.375-112.153-33.461-57.714-71.123-140.211-60.535-205.457 1.327-8.137 9.02-13.686 17.135-12.352 8.145 1.327 13.672 8.998 12.352 17.135-7.16 44.115 13.037 110.06 56.89 185.697 45.763 78.932 109.309 101.128 140.831 96.717 31.478-4.36 72.333-45.223 85.765-58.647 13.424-13.431 54.286-54.286 58.647-85.765 4.368-31.536-17.784-95.069-96.717-140.831-29.261-16.968-57.436-30.559-83.767-40.41-7.722-2.888-11.638-11.492-8.75-19.221 2.895-7.715 11.506-11.645 19.221-8.75 27.876 10.427 57.582 24.741 88.273 42.54 85.845 49.773 117.884 123.411 111.329 170.771-5.09 36.706-38.544 74.207-67.12 102.783-28.576 28.576-66.077 62.03-102.783 67.12-3.953 0.546-8.101 0.823-12.396 0.823z" fill="#323241" p-id="2810"></path><path d="M553.497 393.598a14.932 14.932 0 0 1-12.352-6.519c-12.345-18.091-29.283-34.417-50.356-48.519-6.854-4.586-8.692-13.861-4.105-20.716 4.579-6.84 13.847-8.699 20.716-4.105 24.259 16.231 43.91 35.248 58.421 56.51 4.645 6.81 2.895 16.1-3.923 20.752a14.854 14.854 0 0 1-8.401 2.597z" fill="#FFFFFF" p-id="2811"></path><path d="M493.789 430.84m-22.4 0a22.4 22.4 0 1 0 44.8 0 22.4 22.4 0 1 0-44.8 0Z" fill="#323241" p-id="2812"></path><path d="M430.426 494.203m-22.4 0a22.4 22.4 0 1 0 44.8 0 22.4 22.4 0 1 0-44.8 0Z" fill="#323241" p-id="2813"></path><path d="M362.106 190.926c-0.19 0-0.379 0-0.576-0.007a392.568 392.568 0 0 0-29.881-0.036c-0.197 0.015-0.394 0.015-0.583 0.015-7.984 0-14.605-6.315-14.911-14.357-0.321-8.24 6.103-15.181 14.343-15.495 10.347-0.408 21.175-0.386 32.171 0.022 8.24 0.314 14.664 7.248 14.357 15.495-0.308 8.041-6.928 14.363-14.92 14.363z" fill="#FFFFFF" p-id="2814"></path></svg>